<?xml version="1.0" standalone="no"?>
<!DOCTYPE svg PUBLIC "-//W3C//DTD SVG 20010904//EN"
 "http://www.w3.org/TR/2001/REC-SVG-20010904/DTD/svg10.dtd">
<svg version="1.0" xmlns="http://www.w3.org/2000/svg"
 width="148.000000pt" height="148.000000pt" viewBox="0 0 148.000000 148.000000"
 preserveAspectRatio="xMidYMid meet">
<metadata>
Created by potrace 1.14, written by Peter Selinger 2001-2017
</metadata>
<g transform="translate(0.000000,148.000000) scale(0.100000,-0.100000)"
fill="#000000" stroke="none">
<path d="M245 1158 c-32 -17 -45 -39 -45 -75 0 -100 148 -114 166 -17 14 74
-57 128 -121 92z"/>
<path d="M93 1047 c-29 -17 -56 -40 -60 -52 -10 -28 -11 -325 -2 -351 8 -22
116 -91 126 -80 11 10 9 516 -2 515 -5 0 -34 -15 -62 -32z"/>
<path d="M405 826 c0 -140 3 -257 6 -261 14 -13 117 55 126 83 5 15 8 98 8
184 -1 138 -4 160 -20 178 -17 19 -100 70 -114 70 -3 0 -6 -114 -6 -254z"/>
<path d="M676 1044 c-19 -18 -21 -45 -4 -62 14 -14 58 -16 58 -3 0 5 -8 7 -19
4 -24 -6 -35 11 -26 44 4 19 11 24 25 20 11 -3 18 -1 14 4 -8 14 -31 11 -48
-7z"/>
<path d="M1136 1045 c4 -10 0 -15 -16 -15 -17 0 -21 -5 -18 -27 2 -22 9 -28
29 -30 24 -1 26 1 25 43 -1 27 -6 44 -13 44 -7 0 -10 -7 -7 -15z m4 -39 c0 -8
-4 -17 -9 -20 -10 -7 -23 19 -14 28 11 11 23 6 23 -8z"/>
<path d="M886 1032 c-9 -15 7 -62 21 -62 13 0 13 3 3 15 -9 11 -10 18 -1 29 9
10 8 15 -3 19 -9 4 -17 3 -20 -1z"/>
<path d="M1185 1024 c-9 -9 -14 -23 -11 -31 3 -8 6 -17 6 -19 0 -2 10 -4 23
-4 19 1 20 2 5 10 -14 8 -16 23 -8 50 1 3 5 -4 9 -14 5 -12 10 -15 14 -9 4 6
1 16 -7 22 -11 9 -18 8 -31 -5z"/>
<path d="M744 1015 c-10 -24 4 -45 28 -44 17 1 18 2 6 6 -19 5 -25 43 -7 43 5
0 7 -4 4 -10 -3 -5 -1 -10 4 -10 6 0 11 7 11 15 0 8 -9 15 -20 15 -11 0 -23
-7 -26 -15z"/>
<path d="M810 1001 c0 -17 5 -31 10 -31 6 0 10 11 10 25 0 14 5 25 11 25 7 0
9 -10 7 -25 -3 -15 -1 -25 7 -25 7 0 11 12 10 28 -1 22 -6 28 -28 30 -24 3
-27 0 -27 -27z"/>
<path d="M940 1000 c0 -16 5 -30 11 -30 6 0 9 9 6 20 -3 12 1 24 11 30 15 8
14 9 -5 10 -19 0 -23 -5 -23 -30z"/>
<path d="M990 1006 c0 -14 5 -28 11 -32 7 -4 9 2 7 16 -2 13 3 25 11 28 10 3
13 -2 9 -22 -4 -17 -1 -25 6 -23 6 2 11 15 11 28 0 19 -6 25 -27 27 -24 3 -28
0 -28 -22z"/>
<path d="M217 952 c-2 -4 -3 -101 -3 -215 1 -232 -1 -227 73 -227 68 0 68 1
67 236 l-1 209 -24 -4 c-13 -2 -31 -4 -39 -6 -8 -1 -27 1 -42 6 -15 4 -29 4
-31 1z"/>
<path d="M1180 830 c0 -32 4 -49 10 -45 6 3 10 24 10 45 0 21 -4 42 -10 45 -6
4 -10 -13 -10 -45z"/>
<path d="M1380 870 c-9 -6 -10 -10 -3 -10 6 0 15 5 18 10 8 12 4 12 -15 0z"/>
<path d="M668 824 c2 -25 7 -42 11 -39 10 11 8 85 -4 85 -6 0 -9 -18 -7 -46z"/>
<path d="M710 814 c0 -19 4 -33 8 -30 12 7 14 66 2 66 -5 0 -10 -16 -10 -36z"/>
<path d="M742 820 c1 -16 6 -30 13 -30 7 0 10 11 7 30 -2 17 -8 30 -12 30 -5
0 -8 -13 -8 -30z"/>
<path d="M778 814 c3 -23 8 -32 14 -26 12 12 7 54 -8 59 -6 2 -8 -10 -6 -33z"/>
<path d="M846 836 c4 -11 1 -16 -10 -16 -9 0 -16 -6 -16 -13 0 -20 9 -25 29
-20 21 5 24 54 3 61 -7 2 -10 -2 -6 -12z"/>
<path d="M890 843 c-1 -7 -2 -28 -3 -45 -1 -28 3 -33 24 -33 33 0 40 35 7 36
-15 0 -18 3 -8 6 28 11 39 40 16 40 -8 0 -12 -6 -9 -14 3 -7 0 -13 -5 -13 -6
0 -13 8 -15 18 -3 9 -6 11 -7 5z m40 -69 c0 -2 -9 -4 -21 -4 -11 0 -18 4 -14
10 5 8 35 3 35 -6z"/>
<path d="M960 831 c-12 -24 12 -53 37 -44 14 5 13 8 -5 14 -23 9 -29 24 -13
33 5 4 11 0 14 -6 2 -7 8 -10 12 -6 10 9 -3 28 -20 28 -8 0 -19 -9 -25 -19z"/>
<path d="M1030 813 c0 -19 4 -32 9 -28 6 3 8 14 6 25 -2 11 0 22 6 25 9 6 13
-7 10 -32 -1 -6 3 -15 9 -18 8 -5 10 4 8 26 -2 27 -8 34 -25 35 -20 1 -23 -4
-23 -33z"/>
<path d="M1112 838 c-28 -28 -3 -66 33 -52 17 7 20 50 4 60 -6 3 -10 -1 -9
-12 4 -32 0 -44 -11 -44 -7 0 -10 12 -7 30 3 17 4 30 3 30 0 0 -6 -5 -13 -12z"/>
<path d="M1226 834 c-20 -19 -20 -19 0 -38 12 -12 20 -13 35 -6 23 13 25 46 3
54 -21 8 -20 8 -38 -10z m32 -14 c-3 -22 -23 -28 -24 -7 -1 17 6 27 17 27 6 0
9 -9 7 -20z"/>
<path d="M1300 840 c-7 -4 -9 -13 -6 -19 11 -17 40 -13 53 8 10 16 9 19 -12
19 -12 0 -28 -4 -35 -8z m30 -10 c0 -5 -4 -10 -10 -10 -5 0 -10 5 -10 10 0 6
5 10 10 10 6 0 10 -4 10 -10z"/>
<path d="M1377 843 c-11 -10 -8 -51 3 -58 6 -4 10 8 10 29 0 37 -2 41 -13 29z"/>
<path d="M1415 841 c-3 -7 0 -8 9 -5 9 3 16 1 16 -5 0 -6 -7 -11 -15 -11 -18
0 -20 -26 -3 -36 8 -5 9 -2 5 9 -3 10 -2 17 3 17 6 0 10 -4 10 -10 0 -5 4 -10
9 -10 4 0 8 12 7 27 -1 28 -28 44 -41 24z"/>
<path d="M1296 785 c-6 -18 16 -30 39 -21 8 3 15 12 15 21 0 20 -46 20 -54 0z
m39 -5 c3 -6 -4 -10 -17 -10 -18 0 -20 2 -8 10 19 12 18 12 25 0z"/>
<path d="M670 645 c0 -25 4 -45 8 -45 4 0 8 20 9 45 1 25 -3 45 -8 45 -5 0 -9
-20 -9 -45z"/>
<path d="M1096 648 c1 -24 6 -42 10 -40 5 1 8 17 8 35 -2 45 -3 47 -12 47 -5
0 -7 -19 -6 -42z"/>
<path d="M786 663 c-9 -30 0 -58 20 -60 10 -2 13 0 7 3 -7 3 -13 17 -13 30 0
18 4 23 13 18 8 -5 8 -2 -2 9 -17 21 -18 21 -25 0z"/>
<path d="M1043 663 c-7 -3 -13 -9 -13 -14 0 -4 6 -6 13 -3 7 2 13 -4 14 -16 1
-11 -3 -20 -8 -20 -6 0 -7 5 -3 11 4 7 2 10 -5 8 -20 -7 -13 -24 11 -24 15 0
22 7 23 23 2 25 -14 42 -32 35z"/>
<path d="M710 630 c0 -16 5 -30 10 -30 6 0 8 12 6 26 -3 17 -1 24 7 21 7 -2
12 -12 12 -22 0 -10 5 -20 11 -22 7 -2 9 8 6 27 -3 24 -9 30 -28 30 -20 0 -24
-5 -24 -30z"/>
<path d="M834 645 c-10 -24 4 -45 28 -44 17 1 18 2 6 6 -19 5 -25 43 -7 43 5
0 7 -4 4 -10 -3 -6 1 -7 9 -4 9 3 13 10 10 15 -9 15 -44 10 -50 -6z"/>
<path d="M907 653 c-10 -20 -1 -77 13 -81 13 -5 13 -3 1 11 -12 15 -11 17 3
17 9 0 16 -5 16 -11 0 -5 5 -7 10 -4 16 10 12 22 -10 28 -11 3 -20 13 -19 24
0 16 1 16 8 -2 8 -19 8 -19 20 3 11 20 9 22 -13 22 -14 0 -27 -3 -29 -7z"/>
<path d="M975 630 c0 -16 5 -30 11 -30 6 0 9 10 7 24 -4 17 0 25 14 29 13 3
11 5 -7 6 -22 1 -26 -3 -25 -29z"/>
<path d="M26 501 c-10 -16 5 -42 23 -39 21 4 21 42 -1 46 -9 2 -19 -1 -22 -7z"/>
<path d="M105 444 c-10 -10 -15 -35 -15 -71 0 -46 3 -54 16 -49 9 3 18 6 20 6
2 0 4 20 4 45 0 45 12 60 24 29 3 -9 6 -29 6 -45 0 -22 5 -29 19 -29 15 0 19
7 19 34 0 19 3 40 7 45 12 20 25 0 20 -29 -5 -29 18 -66 35 -55 11 7 5 104 -8
117 -9 9 -28 11 -72 8 -8 -1 -25 1 -37 4 -13 3 -29 -2 -38 -10z"/>
<path d="M323 450 c-28 -11 -44 -41 -38 -71 5 -27 44 -61 59 -51 6 3 25 5 43
4 l32 -3 -5 48 c-6 65 -41 93 -91 73z m44 -42 c15 -25 11 -38 -11 -38 -30 0
-37 9 -25 31 11 22 25 24 36 7z"/>
<path d="M434 445 c-4 -9 4 -23 17 -35 l24 -20 -24 -20 c-14 -12 -21 -26 -17
-36 6 -14 9 -15 29 -1 20 13 25 13 44 0 21 -14 23 -14 30 2 4 11 0 22 -10 30
-21 15 -22 44 -2 51 8 4 15 15 15 25 0 22 -4 23 -30 9 -12 -7 -27 -7 -45 0
-20 8 -27 7 -31 -5z"/>
<path d="M25 397 c4 -75 4 -74 19 -74 17 0 22 18 21 76 0 37 -4 45 -22 47 -19
3 -20 0 -18 -49z"/>
<path d="M753 372 c-1 -40 0 -42 7 -17 10 41 12 65 3 65 -5 0 -9 -21 -10 -48z"/>
<path d="M1162 388 l-21 -32 -6 27 c-7 26 -28 39 -24 15 1 -7 -1 -21 -5 -30
-5 -10 -6 -23 -3 -30 3 -7 6 -3 6 9 1 30 21 40 21 11 l1 -23 21 25 21 25 -7
-30 c-5 -19 -4 -26 2 -20 10 11 26 85 18 85 -2 0 -13 -14 -24 -32z"/>
<path d="M1391 400 c-7 -15 -5 -68 2 -61 5 5 7 21 4 37 -2 16 -5 27 -6 24z"/>
<path d="M778 365 c-3 -14 -1 -25 3 -25 5 0 9 11 9 25 0 14 -2 25 -4 25 -2 0
-6 -11 -8 -25z"/>
<path d="M804 357 l0 -32 10 28 c11 31 31 37 23 7 -3 -11 -1 -20 4 -20 5 0 9
11 9 25 0 19 -5 25 -22 25 -19 0 -23 -6 -24 -33z"/>
<path d="M867 383 c-9 -9 -9 -53 1 -53 4 0 7 14 7 30 0 17 0 30 -1 30 0 0 -4
-3 -7 -7z"/>
<path d="M890 358 c0 -36 4 -35 14 5 4 16 2 27 -4 27 -5 0 -10 -14 -10 -32z"/>
<path d="M918 356 c-4 -22 -5 -42 -3 -45 3 -2 5 3 5 12 0 11 5 14 16 10 13 -5
13 -8 2 -15 -10 -8 -10 -9 1 -6 20 6 26 28 7 28 -9 0 -16 11 -18 28 -3 24 -4
22 -10 -12z"/>
<path d="M943 375 c0 -18 13 -20 20 -2 3 6 6 2 6 -10 1 -12 5 -24 10 -27 5 -3
8 7 8 22 -1 21 -7 28 -23 30 -12 1 -21 -4 -21 -13z"/>
<path d="M1000 379 c0 -5 5 -7 11 -3 8 5 10 -1 7 -19 -3 -15 -1 -24 3 -21 5 3
9 14 9 25 0 10 5 19 11 19 7 0 9 -10 7 -25 -3 -13 -1 -22 3 -19 5 3 9 16 9 30
0 20 -5 24 -30 24 -16 0 -30 -5 -30 -11z"/>
<path d="M1195 369 c-4 -12 -2 -26 4 -32 9 -9 11 -5 9 12 -2 13 3 26 10 28 9
4 11 -3 7 -24 -4 -23 -4 -24 4 -8 15 32 13 45 -8 45 -11 0 -23 -9 -26 -21z"/>
<path d="M1257 370 c3 -11 0 -20 -6 -20 -6 0 -11 -5 -11 -12 0 -9 3 -9 11 -1
6 6 18 9 26 6 11 -4 12 -1 2 21 -14 31 -29 35 -22 6z"/>
<path d="M1300 358 c0 -37 7 -34 14 5 2 15 0 27 -5 27 -5 0 -9 -14 -9 -32z"/>
<path d="M1330 381 c0 -5 -3 -16 -6 -25 -3 -9 -2 -16 3 -16 5 0 10 11 11 25 1
14 0 25 -3 25 -3 0 -5 -4 -5 -9z"/>
<path d="M1354 365 c-2 -33 11 -33 14 0 1 14 -2 25 -6 25 -4 0 -8 -11 -8 -25z"/>
<path d="M1417 383 c-9 -9 -9 -53 1 -53 15 0 29 16 36 38 6 17 3 22 -12 22
-10 0 -22 -3 -25 -7z m23 -23 c-6 -11 -13 -20 -15 -20 -3 0 -5 9 -5 20 0 11 7
20 15 20 13 0 14 -4 5 -20z"/>
</g>
</svg>
